<svg xmlns="http://www.w3.org/2000/svg" xmlns:xlink="http://www.w3.org/1999/xlink" version="1.1"
  width="160.3" height="75.3" enable-background="new 0 0 160.3 75.3" xml:space="preserve" id="btn-play">
  <path fill="#FFFFFF" d="M153.2,75.3H7.2c-4,0-7.2-3.2-7.2-7.2v-61C0,3.2,3.2,0,7.2,0h146c4,0,7.2,3.2,7.2,7.2v61  C160.3,72.1,157.1,75.3,153.2,75.3z M7.2,1C3.8,1,1,3.8,1,7.2v61c0,3.4,2.8,6.2,6.2,6.2h146c3.4,0,6.2-2.8,6.2-6.2v-61  c0-3.4-2.8-6.2-6.2-6.2H7.2z" class=""/>
  <polygon fill="#ffffff" points="67.1500015258789,52.650000953674294 67.1500015258789,22.64999904632566 93.1500015258789,37.650000953674294 "  class="selected" fill-opacity="1" stroke="#ffffff" stroke-opacity="1"/>
</svg>
